<?xml version="1.0" encoding="UTF-8"?>
<svg id="Layer_1" data-name="Layer 1" xmlns="http://www.w3.org/2000/svg" viewBox="0 0 1070.36 467.7">
  <defs>
    <style>
      .cls-1 {
        fill: #2d213f;
      }

      .cls-2 {
        fill: #f47c6d;
      }

      .cls-3 {
        fill: #f2ce75;
      }

      .cls-4 {
        fill: #fede94;
      }
    </style>
  </defs>
  <g id="SVGRepo_iconCarrier" data-name="SVGRepo iconCarrier">
    <g>
      <path class="cls-4" d="M208.11,125.81c1.06,16.79,14.97,29.89,31.8,29.92l64.11.17c-.22,14.29-.45,29.49-.69,45.04l-142.15.04c-18.63,0-33.34,15.72-32.13,34.31,1.1,17,15.2,30.26,32.23,30.33l141.06.62c-.25,16.48-.5,32.44-.73,47.31l-63.88.13c-18.41.04-32.98,15.59-31.82,33.97,1.06,16.79,14.98,29.88,31.8,29.92l62.91.16c-.21,13.73-.33,21.69-.33,21.21.1-9.17,589.9-.76,596.05-3.77,6.14-3,100.53-110.65,100.53-110.65l-7.68-137.61-109.23-74.34-459.91-8.75-114.61-1.04s-.17,11.03-.44,28.92l-65.07.13c-18.41.04-32.98,15.59-31.82,33.96Z"/>
      <path class="cls-3" d="M391.86,383.53c67.14.3,502.77,12.5,504.48,11.66,6.14-3,100.53-110.65,100.53-110.65l-7.68-137.61-109.23-74.34-59.49-1.13c211.5,209.21-259.92,290.81-428.62,312.07Z"/>
      <g>
        <path class="cls-2" d="M780.76,233.75c.53-28.24,23.94-51.19,52.19-51.16,28.24.03,50.82,23.06,50.36,51.37-.53,28.24-23.94,51.19-52.19,51.16-28.24-.16-50.82-23.19-50.36-51.37Z"/>
        <g>
          <path class="cls-1" d="M267.22,69.04c-.31,12.68,9.83,22.91,22.52,22.85l544.9-3.89c2.5.02,5,.05,7.5.2,76.82,4.14,137.12,68.04,135.78,145.95-1.49,80.41-68.06,145.68-148.43,145.51l-545.04-1.17c-12.56-.06-22.97,10.15-23.16,22.7-.25,12.62,9.77,22.85,22.33,22.78l544.98,1.23c105.54.24,192.95-85.45,194.81-190.97,1.86-105.53-82.42-191.48-187.97-191.72h-.22s-545.09,3.83-545.09,3.83c-12.5.13-22.79,10.21-22.91,22.71Z"/>
          <path class="cls-1" d="M462.48,291.68c.19-12.56-9.83-22.78-22.33-22.78l-370.07-.8c-12.56-.06-22.91,10.08-23.16,22.7-.19,12.56,9.83,22.78,22.39,22.84l370,.74c12.56.06,22.91-10.08,23.16-22.7Z"/>
          <path class="cls-1" d="M309.01,202.31l201.09.5c12.56-.06,22.91-10.21,23.22-22.77.19-12.56-9.83-22.78-22.39-22.84l-201.16-.44c-12.62,0-22.97,10.15-23.16,22.7-.25,12.62,9.77,22.85,22.39,22.84Z"/>
        </g>
        <path class="cls-1" d="M735.2,233.61c1.03-53.36,45.21-96.66,98.51-96.57,53.37.15,96.05,43.7,95.09,96.99-.91,53.36-45.08,96.66-98.51,96.57-53.31-.09-95.99-43.63-95.09-96.99ZM832.95,182.59c-28.24-.03-51.66,22.92-52.19,51.16-.47,28.18,22.11,51.21,50.36,51.37,28.24.03,51.66-22.92,52.19-51.16.47-28.31-22.11-51.34-50.36-51.37Z"/>
      </g>
    </g>
  </g>
</svg>