<?xml version="1.0" encoding="UTF-8"?>
<svg id="Ebene_1" xmlns="http://www.w3.org/2000/svg" version="1.1" viewBox="0 0 1050.3 800">
  <!-- Generator: Adobe Illustrator 29.2.1, SVG Export Plug-In . SVG Version: 2.1.0 Build 116)  -->
  <defs>
    <style>
      .st0 {
        fill: #c81523;
      }

      .st1 {
        fill: #1c274c;
      }

      .st2 {
        fill: #b60f68;
        fill-rule: evenodd;
      }

      .st3 {
        opacity: .5;
      }
    </style>
  </defs>
  <path class="st2" d="M492.7,561.7l275.2.4c39.6,0,59.5,0,77.3-7.3,17.8-7.4,31.8-21.3,59.8-49.3l13.4-13.4c43-43,64.5-64.5,64.5-91.3s-21.6-48.4-64.8-91.5l-13.4-13.4c-28.1-28.1-42.1-42.1-59.9-49.5-17.8-7.4-37.6-7.4-77.3-7.5l-275.2-.4c-46.3,0-75-.1-94.4,8.2-6.1,2.6-11.3,6.1-15.9,10.6-18.9,18.9-18.9,49.4-18.8,110.3v8.2l96.8-.7c13.8-.1,25.1,11,25.2,24.8.1,13.8-11,25.1-24.8,25.2l-97.1.7v6.5c0,60.9,0,91.4,19.1,110.4s8.9,7.5,14.5,10c19.5,9,48.4,9,95.9,9.1h0ZM718.8,465.1c-35.7,0-64.7-29-64.7-64.7s28.8-64.6,64.5-64.5c35.7,0,64.7,29,64.7,64.7s-28.8,64.6-64.5,64.5h0Z"/>
  <g class="st3">
    <path class="st1" d="M610.6,188.7l-119.7-.2c-22,0-42.2,0-59.3,1.1-11,.7-22.5,2-33.9,4.7v-5.6c-.3-20.5-4.5-40.8-12.4-59.8-.4-1-.9-2-1.7-4.1l-5.4-12.5c-7.3-16.9,5-35.7,23.4-35.6,52.7,0,116,.2,137.7,9.1,19.1,7.9,35.5,20.6,47.5,36.7,11,14.8,16.5,33.6,23.9,66.1h-.1Z"/>
    <path class="st1" d="M398.2,605.7c0,9.7-.3,16.4-1.1,23-1.1,8.7-2.8,17.3-5.3,25.7-2.8,9.5-6.7,18.6-14.6,36.9-6.4,14.9,4.9,31.8,21.2,31.8h4c52.7,0,116,.2,137.7-8.7,19.1-7.8,35.5-20.5,47.4-36.6,10.9-14.8,16.4-33.5,23.7-66l-120.1-.2c-22.5,0-43.1,0-60.5-1.3-10.4-.8-21.4-2.1-32.3-4.7h0Z"/>
  </g>
  <path class="st0" d="M340.7,463.6v-29.2c-95.4,42.4-143.2-34.5-143.2-34.5,0,0,47.7-76.9,143.1-34.5v-29.1c-31.8-45.1-127.2-47.7-180.3-10.6-53,37.1-92.8,74.2-92.8,74.2,0,0,39.7,37.1,92.8,74.2,53,37.1,148.4,34.5,180.3-10.6Z"/>
</svg>